<svg xmlns="http://www.w3.org/2000/svg" viewBox="0 0 512 512">
  <rect width="512" height="512" rx="64" fill="#166534"/>
  <g fill="white">
    <!-- Spade -->
    <path d="M256 100 c-60 60 -90 100 -90 140 c0 50 40 70 70 70 c10 0 15 -5 20 -10 v40 h-30 v20 h60 v-20 h-30 v-40 c5 5 10 10 20 10 c30 0 70 -20 70 -70 c0 -40 -30 -80 -90 -140z"/>
    <!-- Heart -->
    <path d="M128 280 c-25 0 -45 20 -45 45 c0 50 73 87 73 87 s73 -37 73 -87 c0 -25 -20 -45 -45 -45 c-15 0 -28 12 -28 12 s-13 -12 -28 -12z" transform="translate(0, 50)"/>
    <!-- Diamond -->
    <path d="M384 280 l-30 45 l30 45 l30 -45 z" transform="translate(0, 50)"/>
    <!-- Club -->
    <path d="M256 380 c-20 0 -35 15 -35 35 c0 15 10 25 20 30 c-10 5 -20 15 -20 30 h70 c0 -15 -10 -25 -20 -30 c10 -5 20 -15 20 -30 c0 -20 -15 -35 -35 -35z"/>
  </g>
</svg>
